<svg width="16" height="16" viewBox="0 0 16 16" fill="none" xmlns="http://www.w3.org/2000/svg">
<g clip-path="url(#clip0_3108_841)">
<path fill-rule="evenodd" clip-rule="evenodd" d="M8 1.83325C4.59425 1.83325 1.83334 4.59416 1.83334 7.99992C1.83334 11.4057 4.59425 14.1666 8 14.1666C11.4058 14.1666 14.1667 11.4057 14.1667 7.99992C14.1667 4.59416 11.4058 1.83325 8 1.83325ZM0.833336 7.99992C0.833336 4.04188 4.04196 0.833252 8 0.833252C11.958 0.833252 15.1667 4.04188 15.1667 7.99992C15.1667 11.958 11.958 15.1666 8 15.1666C4.04196 15.1666 0.833336 11.958 0.833336 7.99992Z" fill="#EB5757"/>
<path fill-rule="evenodd" clip-rule="evenodd" d="M8.00684 8.5C7.73069 8.5 7.50684 8.27614 7.50684 8L7.50684 5.33333C7.50684 5.05719 7.73069 4.83333 8.00684 4.83333C8.28298 4.83333 8.50684 5.05719 8.50684 5.33333L8.50684 8C8.50684 8.27614 8.28298 8.5 8.00684 8.5Z" fill="#EB5757"/>
<path fill-rule="evenodd" clip-rule="evenodd" d="M8.50684 10.6667C8.50684 10.9429 8.28298 11.1667 8.00684 11.1667L8.00017 11.1667C7.72403 11.1667 7.50017 10.9429 7.50017 10.6667C7.50017 10.3906 7.72403 10.1667 8.00017 10.1667L8.00684 10.1667C8.28298 10.1667 8.50684 10.3906 8.50684 10.6667Z" fill="#EB5757"/>
</g>
<defs>
<clipPath id="clip0_3108_841">
<rect width="16" height="16" fill="white"/>
</clipPath>
</defs>
</svg>
