<svg width="24" height="24" viewBox="0 0 24 24" fill="none" xmlns="http://www.w3.org/2000/svg">
<path d="M3.00012 5C2.44784 5 2.00012 5.44772 2.00012 6C2.00012 6.55229 2.44784 7 3.00012 7H21.0001C21.5524 7 22.0001 6.55229 22.0001 6C22.0001 5.44772 21.5524 5 21.0001 5H3.00012ZM3.00012 11C2.44784 11 2.00012 11.4477 2.00012 12C2.00012 12.5523 2.44784 13 3.00012 13H21.0001C21.5524 13 22.0001 12.5523 22.0001 12C22.0001 11.4477 21.5524 11 21.0001 11H3.00012ZM3.00012 17C2.44784 17 2.00012 17.4477 2.00012 18C2.00012 18.5523 2.44784 19 3.00012 19H21.0001C21.5524 19 22.0001 18.5523 22.0001 18C22.0001 17.4477 21.5524 17 21.0001 17H3.00012Z" fill="#171717"/>
</svg>
