<svg width="24" height="25" viewBox="0 0 24 25" fill="none" xmlns="http://www.w3.org/2000/svg">
<path fill-rule="evenodd" clip-rule="evenodd" d="M10.5 4.25C6.77208 4.25 3.75 7.27208 3.75 11C3.75 14.7279 6.77208 17.75 10.5 17.75C14.2279 17.75 17.25 14.7279 17.25 11C17.25 7.27208 14.2279 4.25 10.5 4.25ZM2.25 11C2.25 6.44365 5.94365 2.75 10.5 2.75C15.0563 2.75 18.75 6.44365 18.75 11C18.75 15.5563 15.0563 19.25 10.5 19.25C5.94365 19.25 2.25 15.5563 2.25 11Z" fill="#171717"/>
<path fill-rule="evenodd" clip-rule="evenodd" d="M15.4697 15.9697C15.7626 15.6768 16.2374 15.6768 16.5303 15.9697L22.5303 21.9697C22.8232 22.2626 22.8232 22.7374 22.5303 23.0303C22.2374 23.3232 21.7626 23.3232 21.4697 23.0303L15.4697 17.0303C15.1768 16.7374 15.1768 16.2626 15.4697 15.9697Z" fill="#171717"/>
</svg>
