<svg width="16" height="17" viewBox="0 0 16 17" fill="none" xmlns="http://www.w3.org/2000/svg">
<g clip-path="url(#clip0_3108_7853)">
<g clip-path="url(#clip1_3108_7853)">
<path d="M8.6666 1.62421C8.6666 1.25606 8.36815 0.957611 8 0.957611V0.957611C7.63185 0.957611 7.3334 1.25606 7.3334 1.62421L7.33341 7.83349L1.12412 7.83349C0.755974 7.83349 0.457528 8.13193 0.457528 8.50008V8.50008C0.457528 8.86823 0.755973 9.16668 1.12412 9.16668L7.33341 9.16668L7.3334 15.376C7.3334 15.7441 7.63185 16.0426 8 16.0426V16.0426C8.36815 16.0426 8.6666 15.7441 8.6666 15.376L8.66659 9.16668L14.8759 9.16668C15.244 9.16668 15.5425 8.86823 15.5425 8.50008V8.50008C15.5425 8.13193 15.244 7.83349 14.8759 7.83349L8.66659 7.83349L8.6666 1.62421Z" fill="#171717"/>
</g>
</g>
<defs>
<clipPath id="clip0_3108_7853">
<rect width="16" height="16" fill="white" transform="translate(0 0.5)"/>
</clipPath>
<clipPath id="clip1_3108_7853">
<rect width="16" height="16" fill="white" transform="translate(0 0.5)"/>
</clipPath>
</defs>
</svg>
